<?xml version="1.0" encoding="UTF-8" standalone="no"?>
<!-- Created with Inkscape (http://www.inkscape.org/) -->

<svg
   xmlns:dc="http://purl.org/dc/elements/1.1/"
   xmlns:cc="http://creativecommons.org/ns#"
   xmlns:rdf="http://www.w3.org/1999/02/22-rdf-syntax-ns#"
   xmlns:svg="http://www.w3.org/2000/svg"
   xmlns="http://www.w3.org/2000/svg"
   xmlns:xlink="http://www.w3.org/1999/xlink"
   xmlns:sodipodi="http://sodipodi.sourceforge.net/DTD/sodipodi-0.dtd"
   xmlns:inkscape="http://www.inkscape.org/namespaces/inkscape"
   width="1000mm"
   height="200mm"
   viewBox="0 0 3543.3069 708.66142"
   id="svg4378"
   version="1.1"
   inkscape:version="0.91 r13725"
   inkscape:export-xdpi="21"
   inkscape:export-ydpi="21"
   sodipodi:docname="banner.svg">
  <defs
     id="defs4380">
    <filter
       inkscape:collect="always"
       style="color-interpolation-filters:sRGB"
       id="filter4172"
       x="-0.0071236463"
       width="1.0142473"
       y="-0.038038548"
       height="1.0760771">
      <feGaussianBlur
         inkscape:collect="always"
         stdDeviation="1.5823444"
         id="feGaussianBlur4174" />
    </filter>
    <linearGradient
       gradientTransform="matrix(1.0098462,0,0,1.0098462,-1433.1834,117.35047)"
       inkscape:collect="always"
       xlink:href="#linearGradient5643"
       id="linearGradient5649-4"
       x1="113.32887"
       y1="242.59874"
       x2="224.61018"
       y2="155.06854"
       gradientUnits="userSpaceOnUse"
       spreadMethod="pad" />
    <linearGradient
       inkscape:collect="always"
       id="linearGradient5643">
      <stop
         style="stop-color:#017d87;stop-opacity:1"
         offset="0"
         id="stop5645" />
      <stop
         style="stop-color:#70d0da;stop-opacity:1"
         offset="1"
         id="stop5647" />
    </linearGradient>
  </defs>
  <sodipodi:namedview
     id="base"
     pagecolor="#ffffff"
     bordercolor="#000000"
     borderopacity="1"
     inkscape:pageopacity="1"
     inkscape:pageshadow="2"
     inkscape:zoom="3.9597979"
     inkscape:cx="491.86719"
     inkscape:cy="281.30265"
     inkscape:document-units="px"
     inkscape:current-layer="layer1"
     showgrid="false"
     fit-margin-top="10"
     fit-margin-left="10"
     fit-margin-right="10"
     fit-margin-bottom="10"
     inkscape:showpageshadow="false"
     showguides="true"
     inkscape:guide-bbox="true"
     showborder="true"
     inkscape:window-width="1920"
     inkscape:window-height="1016"
     inkscape:window-x="1920"
     inkscape:window-y="27"
     inkscape:window-maximized="1" />
  <metadata
     id="metadata4383">
    <rdf:RDF>
      <cc:Work
         rdf:about="">
        <dc:format>image/svg+xml</dc:format>
        <dc:type
           rdf:resource="http://purl.org/dc/dcmitype/StillImage" />
        <dc:title></dc:title>
      </cc:Work>
    </rdf:RDF>
  </metadata>
  <g
     inkscape:label="Layer 1"
     inkscape:groupmode="layer"
     id="layer1"
     transform="translate(1887.0913,270.57304)">
    <g
       id="g4976"
       transform="matrix(1.1454116,0,0,1.1454116,-126.92243,-175.84748)">
      <g
         style="display:inline;opacity:1;fill:#f2f2f2;stroke:#8d8d8d;stroke-width:1;stroke-linejoin:round;stroke-miterlimit:4;stroke-dasharray:none;stroke-opacity:0.0340557"
         transform="translate(-1350.8615,-447.13125)"
         id="g3465">
        <path
           style="fill:#f2f2f2;fill-rule:evenodd;stroke:#8d8d8d;stroke-width:1;stroke-linecap:butt;stroke-linejoin:round;stroke-miterlimit:4;stroke-dasharray:none;stroke-opacity:0.0340557"
           d="m 918.8342,547.45203 c 0,0 -58.61063,18.80854 -88.86658,23.81593 -42.47112,7.02902 -94.32857,7.61726 -128.86379,8.54135 -56.44873,1.51045 -112.63359,-8.8377 -168.65845,-15.90564 -78.00738,-9.8412 -154.78705,-28.60957 -232.97747,-36.87142 -60.92083,-6.43709 -122.29087,-11.90545 -183.51612,-9.84316 -32.044172,1.07937 -63.982561,5.63544 -95.484604,11.6033 -24.313274,4.60598 -71.864156,18.61979 -71.864156,18.61979 l 0,-13.5 c 0,0 47.550882,-14.01381 71.864156,-18.61979 31.502043,-5.96786 63.440432,-10.52393 95.484604,-11.6033 61.22525,-2.06229 122.59529,3.40607 183.51612,9.84316 78.19042,8.26185 154.97009,27.03022 232.97747,36.87142 56.02486,7.06794 112.20972,17.41609 168.65845,15.90564 34.53522,-0.92409 86.39267,-1.51233 128.86379,-8.54135 30.25595,-5.00739 88.86658,-23.81593 88.86658,-23.81593 z"
           id="path3461"
           inkscape:connector-curvature="0"
           sodipodi:nodetypes="casaaaaccaaaasacc" />
      </g>
      <g
         id="g4276"
         transform="translate(-1350.8615,-133.66112)"
         style="display:inline;opacity:1;fill:#f2f2f2;stroke:#8d8d8d;stroke-width:1;stroke-linejoin:round;stroke-miterlimit:4;stroke-dasharray:none;stroke-opacity:0.0340557">
        <path
           sodipodi:nodetypes="casaaaaccaaaasacc"
           inkscape:connector-curvature="0"
           id="path4278"
           d="m 918.8342,555.45203 c 0,0 -58.61063,18.80854 -88.86658,23.81593 -42.47112,7.02902 -94.32857,7.61726 -128.86379,8.54135 -56.44873,1.51045 -112.63359,-8.8377 -168.65845,-15.90564 -78.00738,-9.8412 -154.78705,-28.60957 -232.97747,-36.87142 -60.92083,-6.43709 -122.29087,-11.90545 -183.51612,-9.84316 -32.044172,1.07937 -63.982561,5.63544 -95.484604,11.6033 -24.313274,4.60598 -71.864156,18.61979 -71.864156,18.61979 l 0,-13.5 c 0,0 47.550882,-14.01381 71.864156,-18.61979 31.502043,-5.96786 63.440432,-10.52393 95.484604,-11.6033 61.22525,-2.06229 122.59529,3.40607 183.51612,9.84316 78.19042,8.26185 154.97009,27.03022 232.97747,36.87142 56.02486,7.06794 112.20972,17.41609 168.65845,15.90564 34.53522,-0.92409 86.39267,-1.51233 128.86379,-8.54135 30.25595,-5.00739 88.86658,-23.81593 88.86658,-23.81593 z"
           style="fill:#f2f2f2;fill-rule:evenodd;stroke:#8d8d8d;stroke-width:1;stroke-linecap:butt;stroke-linejoin:round;stroke-miterlimit:4;stroke-dasharray:none;stroke-opacity:0.0340557" />
      </g>
      <g
         style="display:inline;opacity:1;fill:#f2f2f2;stroke:#8d8d8d;stroke-width:1;stroke-linejoin:round;stroke-miterlimit:4;stroke-dasharray:none;stroke-opacity:0.0340557"
         transform="translate(-1350.8615,-284.39618)"
         id="g4280">
        <path
           style="fill:#f2f2f2;fill-rule:evenodd;stroke:#8d8d8d;stroke-width:1;stroke-linecap:butt;stroke-linejoin:round;stroke-miterlimit:4;stroke-dasharray:none;stroke-opacity:0.0340557"
           d="m 918.8342,547.45203 c 0,0 -58.61063,18.80854 -88.86658,23.81593 -42.47112,7.02902 -94.32857,7.61726 -128.86379,8.54135 -56.44873,1.51045 -112.63359,-8.8377 -168.65845,-15.90564 -78.00738,-9.8412 -154.78705,-28.60957 -232.97747,-36.87142 -60.92083,-6.43709 -122.29087,-11.90545 -183.51612,-9.84316 -32.044172,1.07937 -63.982561,5.63544 -95.484604,11.6033 -24.313274,4.60598 -71.864156,18.61979 -71.864156,18.61979 l 0,-13.5 c 0,0 47.550882,-14.01381 71.864156,-18.61979 31.502043,-5.96786 63.440432,-10.52393 95.484604,-11.6033 61.22525,-2.06229 122.59529,3.40607 183.51612,9.84316 78.19042,8.26185 154.97009,27.03022 232.97747,36.87142 56.02486,7.06794 112.20972,17.41609 168.65845,15.90564 34.53522,-0.92409 86.39267,-1.51233 128.86379,-8.54135 30.25595,-5.00739 88.86658,-23.81593 88.86658,-23.81593 z"
           id="path4282"
           inkscape:connector-curvature="0"
           sodipodi:nodetypes="casaaaaccaaaasacc" />
      </g>
      <path
         sodipodi:nodetypes="csacsssccsssssssssscscsssccsssscc"
         inkscape:connector-curvature="0"
         id="path4963"
         d="m -1280.2107,421.96862 c -23.3369,-3.65848 -45.0132,-15.81397 -66.3196,-37.19029 -13.8645,-13.91001 -18.7483,-21.14277 -24.5642,-33.79729 -3.7311,-8.11835 -5.7893,-17.89015 -6.1919,-26.07914 0.1567,-12.9655 1.7185,-23.20367 8.9183,-37.73437 23.9684,-48.37398 95.4457,-90.3772 149.4074,-87.79846 14.389,0.68762 24.5065,3.92031 31.5071,10.06692 l 6.7254,6.89238 -0.589,-9.39369 c -0.433,-2.72405 -1.622,-18.52145 -3.5141,-35.39215 -4.1161,-36.70101 -9.0086,-87.023849 -6.4664,-114.188019 1.3243,-14.14974 6.854,-48.0080403 8.6854,-50.9711998 0.9105,-1.47318 9.4751,-1.4489195 10.3953,0.039881 0.4031,0.65219 -0.5115,9.5101658 -0.2135,16.2485958 0.8536,19.30045 3.9291,20.649674 8.8938,28.781674 7.4367,12.18121 13.9783,22.889283 42.7866,44.404263 40.9223,30.562165 61.3373,47.565025 69.6122,70.982305 4.4279,12.53065 4.3522,29.35712 -0.2019,44.90556 -6.468,22.08246 -14.5703,37.48061 -34.2905,65.16796 l -6.9416,9.74606 -5.6832,-0.37106 c -4.3203,-0.28207 -5.7864,-0.91477 -6.1139,-2.63837 -0.2369,-1.24702 3.2046,-8.27827 7.648,-15.625 21.1023,-34.89138 28.1785,-54.01769 26.678,-72.10769 -2.8323,-34.14373 -32.0503,-64.22513 -77.0427,-79.31919 -11.099,-3.72349 -31.9569,-7.80513 -34.0625,-6.66562 -0.5157,0.27904 -0.9304,4.27103 -0.9218,8.87108 0.024,12.9634 4.6001,71.73403 6.9343,89.06677 3.0396,22.57027 3.0513,52.3332 -1.1849,74.96485 -8.9969,48.06533 -26.4963,86.86809 -49.0443,114.18311 -7.7828,9.4282 -21.7585,20.58079 -32.9834,23.7733 -6.9323,1.97163 -16.1295,2.07554 -21.8624,1.17679 z"
         style="display:inline;opacity:1;fill:#000000;fill-opacity:1;stroke:none;stroke-opacity:1" />
      <path
         sodipodi:nodetypes="cssccssssssssssscsssssssssscc"
         inkscape:connector-curvature="0"
         id="path4961"
         d="m -1250.4449,413.65509 c 32.026,-15.82814 60.9189,-68.67516 72.2294,-132.11256 3.1634,-17.74223 3.3721,-47.56348 0.4812,-68.75 -2.6326,-19.294 -6.8181,-76.11503 -6.8365,-92.8125 l -0.015,-13.43751 4.89,0 c 7.4405,0 23.1594,3.31044 35.946,7.57032 39.357,13.11178 65.9817,37.27199 74.8105,67.8855 3.0055,10.42156 2.1093,32.12036 -1.7881,43.29419 -4.4128,12.6513 -10.6152,25.37296 -20.1227,41.27379 -4.8046,8.03557 -8.7357,14.97376 -8.7357,15.41817 0,0.44443 1.0345,0.80804 2.299,0.80804 3.6825,0 22.8426,-27.81764 32.7168,-47.5 16.801,-33.48966 17.7982,-55.77325 3.6147,-80.77175 -10.0054,-17.63465 -26.9238,-30.38627 -71.5934,-63.787669 -31.336,-23.43134 -40.2344,-39.38998 -41.3834,-59.87673 -0.3066,-5.46636 -0.5792,-12.64984 -0.6056,-15.96328 -0.044,-5.5104603 -0.2866,-5.9903603 -2.8428,-5.6250003 -2.5015,0.35754 -3.1538,2.0383303 -6.2189,16.0244403 -6.844,31.2296 -8.7363,70.01806 -5.4273,111.249989 1.5247,18.99759 7.5332,64.8005 8.8656,77.1875 0.6131,5.69951 -1.9267,5.37354 -9.0198,-0.87004 -9.6069,-8.45637 -25.6646,-12.16302 -43.7874,-10.10764 -51.3644,5.82548 -106.8103,40.8673 -130.6014,82.54018 -9.2061,16.12565 -12.7793,35.48085 -9.2882,50.31252 7.806,33.16282 45.7644,69.89582 83.8875,81.17932 5.2931,1.56662 10.7047,2.11582 18.3352,1.86077 9.5715,-0.31993 11.9105,-0.89804 20.1901,-4.99005 z"
         style="display:inline;opacity:1;fill:#000000;fill-opacity:1;stroke:none;stroke-opacity:1" />
      <path
         inkscape:connector-curvature="0"
         id="path4959"
         d="m -1282.2321,419.18526 c -41.1908,-7.92449 -86.7666,-50.89065 -91.7545,-86.5006 -4.8835,-34.86504 18.7954,-72.60686 64.021,-102.04332 41.0885,-26.74362 94.7969,-36.7292 117.981,-21.93527 11.7384,7.49033 15.7389,16.12336 16.6078,35.83958 1.7949,40.72659 -15.3932,99.55976 -39.8041,136.24499 -9.4305,14.17243 -24.493,28.62174 -35.4692,34.02531 -6.8169,3.35593 -10.2169,4.19772 -18.3786,4.55025 -5.508,0.23793 -11.4496,0.15649 -13.2034,-0.18094 z"
         style="display:inline;opacity:1;fill:#000000;fill-opacity:1;stroke:none;stroke-opacity:1" />
      <path
         sodipodi:nodetypes="ssssssssss"
         inkscape:connector-curvature="0"
         id="path4803"
         d="m -1251.8683,413.08208 c 14.8604,-7.27055 34.9467,-30.68322 47.0998,-54.89982 20.6527,-41.1535 33.0126,-104.30049 25.4004,-129.77219 -2.9207,-9.77303 -10.4391,-17.50632 -20.9886,-21.58846 -6.2937,-2.43539 -10.0239,-2.94012 -21.2118,-2.87011 -37.3221,0.2335 -81.9785,19.92481 -113.5576,50.07337 -43.4304,41.46294 -48.9156,77.80442 -17.6207,116.74292 17.2711,21.48939 39.0979,37.48198 63.6599,44.55813 2.4887,0.717 12.3923,2.77359 18.4939,2.58407 9.1707,-0.28482 12.4168,-1.74176 18.7247,-4.82791 z"
         style="display:inline;opacity:1;fill:#ffffff;fill-opacity:1;stroke:none;stroke-opacity:1" />
      <path
         sodipodi:nodetypes="scccsssssssszsccssccssassacsccsczzsscccscsscszsscsccszsssssscssccscsssssssccccczcassczsscscsscsscscscccscsczccsccscsssscscscssccscssccscsssscssssscssssssssssssassssssssssssssssssssssssssscsssssccsssssssssssssssss"
         inkscape:connector-curvature="0"
         id="path5100-2"
         d="m -1278.9612,413.20951 c -4.0934,-0.29407 -8.8102,-1.58596 -8.7976,-2.12904 0.022,-0.92736 5.5716,-7.6255 7.9368,-11.34998 4.5186,-7.36746 3.5453,-9.00533 11.2951,-4.4901 5.7626,3.23643 11.2182,6.31215 13.6481,7.47091 3.2986,1.57299 5.1526,2.3935 3.1972,4.83126 -1.8541,2.31154 -4.3562,3.44408 -10.7486,4.39002 -4.1583,0.61534 -10.3416,1.72157 -16.531,1.27693 z m -26.1092,-9.10162 c -5.1923,-2.49722 -15.3114,-9.76768 -18.4502,-12.01101 -7.6397,-5.46002 -20.7223,-17.42364 -22.5536,-21.0832 -2.4787,-4.95323 -2.6287,-5.691 9.5077,-14.22626 6.0491,-4.25424 13.7301,-10.2582 14.8255,-10.72806 1.0955,-0.46985 1.0217,1.05453 6.2403,7.67615 7.4346,9.43339 25.3591,27.10893 34.975,34.56421 5.4504,4.21212 1.9109,4.95625 -3.4221,13.24054 -4.0159,4.45732 -5.1736,6.66356 -7.2742,8.00894 -1.1434,0.73232 -8.656,-2.94409 -13.8484,-5.44131 z m 23.9944,-128.23351 c 0,0 0.2759,-4.03278 0.3005,-8.71887 0.4646,-4.93319 0.7492,-8.20739 1.3006,-10.34009 0.7492,-2.89827 0.412,-2.55046 1.9075,-2.05405 1.6371,0.54339 12.5332,6.12326 18.6687,9.43584 10.9715,5.92358 32.4214,17.21435 32.4214,18.65522 0,0.60236 -0.8533,0.76778 -1.8961,0.36761 -1.0428,-0.40018 -14.7362,-1.42858 -22.1223,-1.90209 -6.6673,-0.42742 -20.0249,-0.84696 -20.0249,-0.84696 -2.9164,-0.0497 -10.7961,0.24408 -10.7259,-0.45939 0.1415,-1.4153 0.1705,-4.13722 0.1705,-4.13722 z m -31.6777,6.11625 c -13.0973,0.82313 -31.6075,4.17775 -32.3578,3.5867 -0.6657,-0.52443 -1.2086,-6.88721 -1.1852,-10.84876 1.1242,-6.14255 8.8928,-12.94869 10.1226,-14.07363 1.2298,-1.12493 10.0342,-8.8986 15.1568,-12.96694 5.1227,-4.06833 9.4343,-7.50178 26.4293,-0.42975 14.0808,5.85937 13.9437,4.86114 13.1908,7.88943 -1.732,6.96688 -1.3602,7.39363 -1.8526,11.64094 0.01,4.89959 -0.4313,5.31217 -0.2022,13.67361 -15.7323,0.57139 -16.5074,0.60387 -29.3017,1.5284 z m 31.5148,0.59263 c 0.2871,-0.92148 2.8121,-0.29826 5.9081,-0.40572 7.867,0.0722 15.9008,0.50887 25.3562,0.86196 11.7532,0.47988 22.2058,2.10341 23.2951,2.52139 1.3361,0.51274 -1.2861,2.44435 -8.0604,5.93758 -5.5225,2.84768 -32.936,18.6488 -33.81,18.31339 -2.0522,-0.78749 -8.7603,-14.56941 -10.1658,-18.28741 -1.3025,-3.44548 -2.8103,-8.01973 -2.5232,-8.94119 z m 1.1237,10.83461 c 2.1088,5.46832 6.8462,14.45714 7.6109,15.701 1.3417,2.18242 0.2323,2.70897 -23.562,17.8512 -16.3975,10.43505 -24.7798,15.99289 -24.7798,15.99289 -4.8872,-4.40454 -11.5311,-20.2703 -15.3838,-30.66151 -2.771,-7.6974 -5.3475,-13.39523 -8.5518,-24.34771 7.5754,-0.34202 9.2305,-1.4473 30.447,-3.27153 21.2165,-1.82423 30.0264,-3.28146 30.9757,-2.10896 0.9493,1.17249 -0.9936,-0.14331 3.2438,10.84462 z m -73.8744,-11.91132 c 0.9899,-1.6342 2.0498,-2.77424 3.3193,-3.8279 3.1632,-2.62552 2.5507,-0.30018 3.1183,4.87154 0.07,0.63674 0.01,1.81865 0.2216,2.79343 0.052,0.23676 -1.4092,0.59115 -5.7528,1.11361 -3.5066,0.2917 -3.6328,-0.44971 -2.8778,-1.69611 z m 8.655,12.102 c 1.9558,5.89579 5.3663,15.11774 6.7606,19.06317 2.5465,7.20583 8.1166,20.24802 12.4864,26.46662 l 3.3047,5.18844 -2.584,2.14697 c -1.5449,1.28369 -7.7707,6.08996 -12.1931,9.11364 -4.4378,3.03432 -9.6596,8.72919 -14.9589,6.02886 -5.1775,-2.63827 -6.5363,-7.53961 -8.7417,-12.87246 -3.8944,-9.41655 -5.8227,-18.18017 -6.0792,-28.80206 -0.21,-8.69675 3.942,-19.62629 5.3536,-23.94357 0.4649,-1.42189 2.4763,-4.9969 3.0458,-5.82192 0.7206,-1.04398 0.1004,-0.86691 5.9315,-1.53016 8.2341,-0.85081 6.0304,0.10257 7.6743,4.96247 z m 91.7099,60.4426 c 4.77,-8.5048 5.5929,-10.35536 8.9139,-15.15039 1.3551,-1.83886 0.6801,-1.51818 7.3327,2.11899 3.984,1.84338 10.2985,4.34497 14.0323,5.51146 l 7.2902,1.9203 c 0,0 0.3747,6.00585 0.3007,9.00991 -0.095,3.84457 0.5467,7.85361 -0.952,11.49784 -2.7467,6.67907 -5.0572,9.7063 -11.4109,17.07119 -5.8545,6.78635 -15.61,18.75516 -22.3433,16.27155 -4.0266,-1.60281 -16.2009,-8.67137 -19.0309,-10.11512 -4.8399,-2.46913 -4.6869,-2.57647 -3.04,-5.17772 2.767,-4.37057 5.0336,-8.543 6.0757,-10.23137 1.0421,-1.68837 8.0615,-14.22185 12.8316,-22.72664 z m -23.3363,33.47599 c -11.316,-9.06465 -5.759,-4.62242 -24.4037,-20.93169 -8.2448,-8.57872 -18.5059,-21.12891 -18.4846,-21.54366 11.0804,-7.77822 23.9891,-15.58627 36.0819,-22.8754 7.3695,-4.51192 12.9919,-8.51135 14.0526,-8.20351 1.4344,0.41629 3.9044,4.30901 8.0002,8.77886 4.0958,4.46983 6.8931,6.85295 9.2863,8.38722 l 6.6031,5.2246 -5.0372,9.59731 c -2.983,5.6835 -7.2728,13.28152 -9.4536,16.92644 -5.7962,8.37911 -13.9253,26.81844 -16.645,24.63983 z m 63.3021,-30.53577 c 0,-8.04556 -1.3534,-9.20268 1.3826,-8.46949 1.5621,0.41863 3.5502,0.76891 4.418,0.77839 2.2584,0.0246 1.9669,2.10206 -1.2623,8.99704 -4.0759,8.70291 -4.5383,8.88183 -4.5383,-1.30594 z m 6.6904,-9.86444 c -3.1555,-0.1405 -6.1921,-0.5365 -6.7479,-0.88001 -0.5558,-0.34351 -2.692,-40.12523 -3.1275,-44.81154 -0.456,-4.90622 -0.6514,-8.92174 0.016,-8.92174 1.0567,0 9.2015,13.12099 17.392,28.01815 3.0999,5.63817 2.8723,8.12278 1.8619,11.10048 -1.0105,2.97772 -1.7749,5.26557 -3.1856,8.84443 -2.2146,5.78836 -2.0569,5.97752 -6.2088,6.65023 z m -17.8834,-3.56466 c -5.2838,-1.90736 -15.0006,-5.61696 -16.7702,-6.87501 -2.0068,-1.42673 -1.5973,-1.37559 -0.5482,-3.20618 0.7223,-1.26034 5.652,-10.82058 9.5263,-18.68035 5.297,-10.74584 9.8438,-22.15598 9.9536,-22.44543 0.2305,-0.60718 0.5036,-1.10397 1.119,-1.10397 0.6154,0 1.48,2.41416 1.9212,5.36481 0.5187,3.46837 1.0741,13.23476 1.7755,22.86827 0.6296,8.6465 1.0842,16.00197 1.459,20.68136 0.043,6.26463 1.354,6.93066 -8.4362,3.3965 z m -25.1459,-12.98888 c -4.675,-3.38652 -16.8733,-16.31988 -16.8733,-17.89 0,-2.02673 42.1727,-25.12313 43.4823,-23.81358 0.3746,0.37457 -0.3927,2.90977 -1.7051,5.63378 -1.3124,2.72401 -14.1775,29.40253 -16.2038,33.05765 l -3.6842,6.64567 z m 51.0745,-14.51902 c -3.3,-5.02171 -15.2763,-23.61614 -14.551,-24.34144 0.7545,-0.75444 9.4058,5.69063 17.0804,12.72458 7.3786,6.72621 6.1192,7.02809 5.5785,9.16946 -1.1032,2.4 -2.0337,4.08003 -3.0763,5.40042 -1.6444,1.8108 -1.6622,2.17417 -3.2387,-0.22476 z m -1.8327,-18.28747 c -4.2514,-3.29765 -9.0797,-6.98858 -10.7296,-8.20206 -2.9673,-2.18247 -2.9297,-2.19868 3.4779,-1.49857 9.0388,0.98759 19.2557,4.04875 19.8189,6.24395 0.8457,3.29621 -0.7684,7.18503 -3.0347,9.19272 -0.7497,0.6642 -5.2811,-2.43841 -9.5325,-5.73604 z m 0.7872,-10.323 c -6.5956,-1.20094 -13.128,-2.44038 -14.5166,-2.75433 -1.8511,-0.41854 -0.1674,-1.66604 6.3116,-4.6764 4.8598,-2.25808 10.3925,-4.86716 12.2947,-5.79794 5.209,-2.54876 10.7073,-3.48704 11.6353,-1.98552 0.9435,1.52654 -1.383,15.3412 -2.7911,16.57335 -0.5181,0.45339 -6.3384,-0.15822 -12.9339,-1.35916 z m -10.9908,-24.91007 c 3.4476,-10.24047 6.4644,-18.84129 6.704,-19.11294 0.6395,-0.72488 14.5693,10.79083 17.9968,14.2164 3.4276,3.42556 3.3616,3.74997 3.3219,5.61417 -0.6207,3.61713 -15.9021,9.87472 -22.3687,13.06873 -5.3652,2.65798 -10.2426,4.83268 -10.8386,4.83268 -0.5961,0 1.737,-8.37857 5.1846,-18.61904 z m -19.5331,15.07267 c -9.7376,-6.35981 -16.7409,-9.37844 -25.1724,-13.95621 -7.3438,-3.98717 -19.5392,-10.15405 -22.1361,-11.76642 -0.7998,-0.49657 6.753,-7.71143 10.1731,-11.03472 7.0685,-6.86831 5.4767,-4.94305 10.4551,1.10835 1.1423,1.38854 3.4182,3.97093 5.0575,5.73864 8.8999,9.59716 25.6382,29.33577 25.6382,30.91428 0,1.84504 -1.1162,0.88961 -4.0154,-1.00392 z m 7.3978,-13.25351 c -1.9216,-8.76831 -4.6351,-19.41912 -6.0301,-23.66844 -1.395,-4.24932 -2.364,-8.20394 -2.1534,-8.78804 0.42,-1.16466 6.0168,1.08672 12.1857,3.75725 6.119,2.64889 12.8123,5.70692 12.8123,7.04213 0,2.10996 -7.6724,24.68755 -10.8854,32.03232 l -2.4354,5.56719 z m -5.9106,7.01705 c -8.0217,-10.30386 -9.4988,-12.05796 -21.1401,-25.10396 -5.7277,-6.41889 -9.5114,-10.74376 -9.5114,-11.08177 0,-1.37153 12.7967,-4.70203 19.1122,-4.31106 6.6477,0.41152 6.7887,0.50288 8.439,5.46775 4.2726,12.85353 10.6946,42.28731 9.2265,42.28731 -0.2615,0 -3.0183,-3.26623 -6.1262,-7.25827 z m 41.6472,-17.04176 c -10.9503,-9.89779 -14.3472,-10.68247 -15.6116,-14.14056 1.5788,-9.29427 2.6544,-14.92215 6.1489,-24.45608 1.7665,-1.76658 10.577,9.66727 12.5383,16.27177 2.0229,6.81183 2.7719,25.16567 1.0269,25.16567 -0.5278,0 -2.3739,-1.27836 -4.1025,-2.8408 z m -116.428,-12.73458 c -2.473,-0.94302 -6.6664,-1.79977 -4.1061,-3.74915 5.593,-4.25846 26.346,-15.05866 27.359,-15.05866 1.013,0 3.7141,-0.34995 11.6061,6.77234 4.7682,4.30313 5.2103,5.01349 2.9335,6.71728 -2.6815,2.00656 -6.7809,6.33923 -11.2919,11.45142 -3.1434,3.56231 -1.5719,3.58471 -7.8441,1.29134 -8.5659,-3.19507 -8.9991,-4.20584 -18.6565,-7.42457 z m 93.9026,-4.1304 c -5.4078,-2.72302 -6.2832,-3.15331 -10.612,-4.62652 l -12.9239,-4.39827 -3.0069,-7.64262 c -4.3985,-11.17945 -3.9827,-11.59451 11.615,-11.59451 12.7415,0 20.2142,1.38093 23.0972,4.26831 1.0385,1.04 0.9782,3.87618 -0.2289,10.76359 -2.9499,16.83288 -2.449,15.99523 -7.9405,13.23002 z m -58.1728,-10.02155 c -2.9118,-3.15892 -5.0709,-6.41312 -4.7981,-7.23155 0.6136,-1.84089 20.3695,-8.35635 25.5615,-8.43018 4.0123,-0.0571 5.3107,1.33413 9.783,10.48201 1.3056,2.6706 2.1919,5.28745 1.7437,5.48577 -2.2259,0.98482 -4.4444,0.88623 -9.1061,1.19924 -4.6618,0.313 -10.4518,1.39464 -12.8667,2.40364 -2.4149,1.009 -4.533,1.83455 -4.7069,1.83455 -0.1739,0 -2.6986,-2.58456 -5.6104,-5.74348 z"
         style="display:inline;opacity:1;fill:url(#linearGradient5649-4);fill-opacity:1;stroke:#ffffff;stroke-width:1.00984621;stroke-opacity:0.73202616" />
      <text
         transform="matrix(0.99998428,0,0,0.99998403,-1394.2435,-1.5008863)"
         sodipodi:linespacing="0%"
         id="text3361"
         y="237.73109"
         x="354.30438"
         style="font-style:normal;font-variant:normal;font-weight:bold;font-stretch:normal;font-size:107.27422333px;line-height:0%;font-family:'Century Gothic';-inkscape-font-specification:'Century Gothic, Bold';text-align:start;letter-spacing:0px;word-spacing:0px;writing-mode:lr-tb;text-anchor:start;display:inline;opacity:0.98999999;fill:#000000;fill-opacity:1;stroke:none;stroke-width:1px;stroke-linecap:butt;stroke-linejoin:miter;stroke-opacity:1;filter:url(#filter4172)"
         xml:space="preserve"><tspan
           style="line-height:0%;letter-spacing:10px"
           y="237.73109"
           x="354.30438"
           id="tspan3363"
           sodipodi:role="line" /></text>
      <text
         sodipodi:linespacing="0%"
         id="text3369"
         y="359.91284"
         x="-1031.9447"
         style="font-style:normal;font-variant:normal;font-weight:bold;font-stretch:normal;font-size:50.27482986px;line-height:0%;font-family:'Century Gothic';-inkscape-font-specification:'Century Gothic, Bold';text-align:start;letter-spacing:9.5px;word-spacing:0px;writing-mode:lr-tb;text-anchor:start;display:inline;opacity:1;fill:#000000;fill-opacity:1;stroke:none;stroke-width:1px;stroke-linecap:butt;stroke-linejoin:miter;stroke-opacity:1"
         xml:space="preserve"><tspan
           style="font-style:normal;font-variant:normal;font-weight:bold;font-stretch:normal;font-size:50.27482986px;line-height:0%;font-family:'Century Gothic';-inkscape-font-specification:'Century Gothic, Bold';text-align:start;letter-spacing:9.02999878px;writing-mode:lr-tb;text-anchor:start"
           y="359.91284"
           x="-1031.9447"
           id="tspan3371"
           sodipodi:role="line">Skoles Musikkorps</tspan></text>
      <text
         transform="scale(1.035711,0.96552031)"
         sodipodi:linespacing="0%"
         id="text4182"
         y="245.8736"
         x="-1004.0878"
         style="font-style:normal;font-weight:normal;font-size:108.2427063px;line-height:0%;font-family:Sans;letter-spacing:0px;word-spacing:0px;display:inline;opacity:1;fill:#000000;fill-opacity:1;stroke:none;stroke-width:1px;stroke-linecap:butt;stroke-linejoin:miter;stroke-opacity:1"
         xml:space="preserve"><tspan
           style="font-style:normal;font-variant:normal;font-weight:bold;font-stretch:normal;font-size:108.2427063px;line-height:0%;font-family:'Century Gothic';-inkscape-font-specification:'Century Gothic, Bold';text-align:start;letter-spacing:15.44830799px;writing-mode:lr-tb;text-anchor:start"
           y="245.8736"
           x="-1004.0878"
           id="tspan4184"
           sodipodi:role="line">ordpolen</tspan></text>
    </g>
    <text
       xml:space="preserve"
       style="font-style:normal;font-weight:normal;font-size:237.19044495px;line-height:0%;font-family:Sans;letter-spacing:25px;word-spacing:0px;fill:#000000;fill-opacity:1;stroke:none;stroke-width:1px;stroke-linecap:butt;stroke-linejoin:miter;stroke-opacity:1"
       x="-419.88443"
       y="29.913513"
       id="text4995"
       sodipodi:linespacing="0%"><tspan
         sodipodi:role="line"
         id="tspan4997"
         x="-419.88443"
         y="29.913513"
         style="font-style:normal;font-variant:normal;font-weight:bold;font-stretch:normal;font-size:237.19044495px;line-height:0%;font-family:'Century Gothic';-inkscape-font-specification:'Century Gothic, Bold';text-align:start;letter-spacing:25px;writing-mode:lr-tb;text-anchor:start">Loppemarked</tspan></text>
  </g>
</svg>
